# xmcd
# 
# Track frame offsets:
#     150
#     13837
#     30147
#     44705
#     59853
#     74282
#     88784
# 
# Disc length: 1450
# 
# Revision: 0
# Processed by: cddbd v1.5.2PL0 Copyright (c) Steve Scherf et al.
# Submitted via: fre:ac v1.0.17
# 
DISCID=5f05a807
DTITLE=Nicole Pryor - Nicole Pryor Unplugged
DYEAR=2006
DGENRE=R&B
TTITLE0=The Little Girl Is Me
TTITLE1=How I Need Your Love
TTITLE2=Show Me How To Love Again
TTITLE3=The Love I Found In You
TTITLE4=When I Am With You
TTITLE5=Without You
TTITLE6=Just Me And You
EXTD=
EXTT0=
EXTT1=
EXTT2=
EXTT3=
EXTT4=
EXTT5=
EXTT6=
PLAYORDER=
